<?xml version="1.0" encoding="UTF-8" standalone="no"?>
<svg
   xmlns:dc="http://purl.org/dc/elements/1.1/"
   xmlns:cc="http://creativecommons.org/ns#"
   xmlns:rdf="http://www.w3.org/1999/02/22-rdf-syntax-ns#"
   xmlns:svg="http://www.w3.org/2000/svg"
   xmlns="http://www.w3.org/2000/svg"
   xmlns:xlink="http://www.w3.org/1999/xlink"
   xmlns:sodipodi="http://sodipodi.sourceforge.net/DTD/sodipodi-0.dtd"
   xmlns:inkscape="http://www.inkscape.org/namespaces/inkscape"
   width="132.11513mm"
   height="132.267mm"
   viewBox="0 0 132.11513 132.267"
   version="1.1"
   id="svg866"
   inkscape:version="1.0.2-2 (e86c870879, 2021-01-15)"
   sodipodi:docname="logo.svg">
  <defs
     id="defs860">
    <linearGradient
       y2="381.53876"
       x2="2157.1445"
       y1="1733.0607"
       x1="-75.56321"
       gradientTransform="matrix(0.0615165,0,0,0.0615165,106.70651,86.735371)"
       gradientUnits="userSpaceOnUse"
       id="linearGradient883"
       xlink:href="#linearGradient4554"
       inkscape:collect="always" />
    <linearGradient
       inkscape:collect="always"
       id="linearGradient4554">
      <stop
         style="stop-color:#48b3cd;stop-opacity:1"
         offset="0"
         id="stop4550" />
      <stop
         style="stop-color:#22dd6e;stop-opacity:1"
         offset="1"
         id="stop4552" />
    </linearGradient>
  </defs>
  <sodipodi:namedview
     id="base"
     pagecolor="#ffffff"
     bordercolor="#666666"
     borderopacity="1.0"
     inkscape:pageopacity="0.0"
     inkscape:pageshadow="2"
     inkscape:zoom="0.35"
     inkscape:cx="-4.6193184"
     inkscape:cy="232.81041"
     inkscape:document-units="mm"
     inkscape:current-layer="layer1"
     inkscape:document-rotation="0"
     showgrid="false"
     inkscape:window-width="1920"
     inkscape:window-height="1017"
     inkscape:window-x="-8"
     inkscape:window-y="-8"
     inkscape:window-maximized="1" />
  <metadata
     id="metadata863">
    <rdf:RDF>
      <cc:Work
         rdf:about="">
        <dc:format>image/svg+xml</dc:format>
        <dc:type
           rdf:resource="http://purl.org/dc/dcmitype/StillImage" />
        <dc:title></dc:title>
      </cc:Work>
    </rdf:RDF>
  </metadata>
  <g
     inkscape:label="Ebene 1"
     inkscape:groupmode="layer"
     id="layer1"
     transform="translate(-107.05553,-86.568912)">
    <path
       inkscape:export-ydpi="384.51001"
       inkscape:export-xdpi="384.51001"
       d="m 200.45394,175.18605 c -3.14428,-0.52028 -3.69898,-0.77351 -5.57749,-0.92292 -0.50422,-0.0401 -1.01161,0.005 -1.51742,0.008 -2.3169,0.0122 -3.91498,0.25188 -8.9246,1.33858 -1.2319,0.26723 -2.30693,0.48588 -2.38895,0.48588 -0.24445,0 -1.45852,-2.22483 -1.84521,-3.3814 -0.4096,-1.22507 -0.35838,-2.08407 0.19294,-3.23575 0.34022,-0.71067 0.38251,-0.7775 1.99027,-3.14349 8.87915,-10.57095 3.51983,-27.21126 11.66715,-35.48029 3.13282,-2.68146 6.45663,-4.49173 10.37817,-3.36492 6.15987,1.76997 9.00864,6.57404 8.29308,12.55714 -0.62976,2.77146 -1.98583,7.00947 -6.26732,5.20602 -2.0883,-1.49369 -0.64154,-4.01006 -0.45162,-5.5341 0.68294,-5.48009 -4.38655,-6.59763 -6.331,-4.75541 -5.13871,5.82842 -2.86845,23.59153 -9.98707,32.97399 0.0132,0.0132 0.61476,-0.0135 1.33654,-0.0593 4.57325,-0.4687 9.62359,0.68556 13.24655,1.52146 6.93844,1.61367 14.65125,3.35098 20.18242,-0.6436 7.58293,-5.47637 8.9839,-12.3603 8.21248,-21.08099 -1.51013,-13.26032 -7.5737,-25.67065 -15.72371,-34.77734 -9.40499,-10.36629 -22.22786,-17.334684 -35.30925,-19.188209 -15.19661,-2.877545 -31.07541,2.632879 -41.44913,9.417939 -6.34801,4.7747 -10.4463,7.71464 -14.80212,13.20874 -1.51624,1.91256 -2.18262,3.02016 -4.12777,3.76738 -1.52703,0.58661 -6.34829,2.12244 -6.34829,2.12244 1.74253,-8.31372 9.59755,-15.28358 15.68295,-20.41687 13.98518,-11.328043 33.50473,-17.261367 50.71627,-14.61619 19.64756,2.81245 36.42921,12.702164 47.15571,29.49893 1.69238,2.65155 4.15004,7.20677 5.34326,9.90355 4.16962,9.42378 6.10071,20.73229 5.11794,29.52793 -1.06389,9.52175 -5.08008,15.66884 -11.80761,18.90004 -3.38066,1.62369 -7.22799,2.69831 -11.72917,2.37506 -5.24592,-0.37674 -10.98494,-1.5725 -14.928,-2.21224 z m -93.2914,-24.67959 c 0.48531,-4.39357 1.72366,-8.7548 3.49623,-12.31299 2.81819,-5.65715 6.5594,-9.03233 11.2997,-10.19416 1.43093,-0.35071 2.41774,-0.45121 3.83102,-0.39016 2.90312,0.12541 5.25106,1.02109 7.40451,2.82464 1.53503,1.4744 3.39402,4.84262 3.39402,4.84262 0,0 4.42829,-4.92854 10.87029,-2.9168 5.32803,1.31879 6.68757,6.43827 6.68757,6.43827 0,0 4.76014,-4.84267 10.93687,-3.34298 3.4531,1.12842 6.52274,4.14903 6.53113,7.98832 0.0172,7.86689 -2.53251,16.57307 -3.57677,23.09855 -0.94644,5.91423 1.29244,4.41454 5.06101,5.4012 0.63325,0.67491 2.04446,3.40487 1.67862,5.54308 -6.7994,0.65479 -12.23307,-0.72603 -12.84227,-4.02493 -1.24648,-7.07733 5.22645,-27.81334 2.735,-30.79243 -1.80565,-2.15905 -4.70136,-1.04019 -6.34667,0.42391 -1.23465,1.16869 -2.01334,2.55074 -2.7908,4.95321 -2.12545,9.82208 -3.57679,16.99148 -5.86194,28.26257 -0.64053,3.15931 -5.91301,0.75091 -5.66684,-1.50831 3.43638,-18.166 6.15333,-28.02877 4.96276,-32.29075 -0.6762,-2.42066 -3.0131,-3.90931 -5.62361,-3.2245 -5.17501,0.66298 -6.45134,12.50253 -11.09384,35.30539 -0.51511,2.53011 -1.49623,3.76925 -3.33585,3.84477 -3.06359,0 -2.84021,-2.58667 -2.83421,-2.73274 0.0249,-0.60635 1.00102,-5.35621 2.67017,-14.86986 2.33447,-13.30579 3.03481,-17.45236 3.03481,-17.96841 0,-1.86637 -0.60313,-3.96335 -1.60479,-5.57951 -2.05999,-2.93437 -5.17399,-3.76392 -8.03003,-2.45449 -1.32378,0.62964 -2.57128,1.71623 -3.66692,3.1939 -2.72673,3.67755 -4.73213,13.85872 -4.23835,19.83815 4.39127,53.17688 72.15565,76.44382 109.96172,27.04434 0.55481,-0.63314 9.83002,-4.39503 10.17524,-3.92871 -36.32104,67.61576 -130.9447,36.74662 -127.21778,-30.47119 z"
       style="fill:url(#linearGradient883);fill-opacity:1;stroke-width:0.352777"
       id="path873" />
  </g>
</svg>
